<svg width="36" height="36" viewBox="0 0 36 36" fill="none" xmlns="http://www.w3.org/2000/svg">
<path d="M32.0624 18C32.0624 18.4475 31.8846 18.8768 31.5682 19.1932C31.2517 19.5097 30.8225 19.6875 30.3749 19.6875H9.69883L16.9431 26.9318C17.2553 27.2491 17.4295 27.677 17.4277 28.1221C17.4259 28.5673 17.2482 28.9937 16.9334 29.3085C16.6187 29.6233 16.1922 29.8009 15.7471 29.8028C15.3019 29.8046 14.8741 29.6304 14.5567 29.3182L4.43172 19.1932C4.11527 18.8767 3.9375 18.4475 3.9375 18C3.9375 17.5525 4.11527 17.1232 4.43172 16.8068L14.5567 6.68178C14.8741 6.36957 15.3019 6.19541 15.7471 6.19722C16.1922 6.19903 16.6187 6.37668 16.9334 6.69146C17.2482 7.00625 17.4259 7.43266 17.4277 7.87783C17.4295 8.323 17.2553 8.75085 16.9431 9.06819L9.69897 16.3125H30.3749C30.8225 16.3125 31.2517 16.4903 31.5682 16.8067C31.8846 17.1232 32.0624 17.5524 32.0624 18Z" fill="#00C6A5"/>
</svg>
