<svg width="16" height="16" viewBox="0 0 16 16" fill="none" xmlns="http://www.w3.org/2000/svg">
<path d="M8 1.5C6.71443 1.5 5.45772 1.88122 4.3888 2.59545C3.31988 3.30968 2.48676 4.32484 1.99479 5.51256C1.50282 6.70028 1.37409 8.00721 1.6249 9.26809C1.8757 10.529 2.49477 11.6872 3.40381 12.5962C4.31285 13.5052 5.47104 14.1243 6.73192 14.3751C7.99279 14.6259 9.29973 14.4972 10.4874 14.0052C11.6752 13.5132 12.6903 12.6801 13.4046 11.6112C14.1188 10.5423 14.5 9.28558 14.5 8C14.498 6.2767 13.8126 4.62456 12.594 3.406C11.3754 2.18744 9.7233 1.50198 8 1.5ZM10.5 8.5H6.707L7.97463 9.76756C8.02191 9.8138 8.05955 9.86896 8.08537 9.92984C8.11119 9.99072 8.12468 10.0561 8.12505 10.1223C8.12542 10.1884 8.11266 10.2539 8.08753 10.3151C8.06239 10.3763 8.02537 10.4318 7.97861 10.4786C7.93185 10.5254 7.87627 10.5624 7.8151 10.5875C7.75393 10.6127 7.68839 10.6254 7.62226 10.625C7.55613 10.6247 7.49073 10.6112 7.42984 10.5854C7.36896 10.5595 7.3138 10.5219 7.26757 10.4746L5.14713 8.35413C5.05338 8.26012 5.00073 8.13277 5.00073 8C5.00073 7.86723 5.05338 7.73989 5.14713 7.64588L7.26757 5.52538C7.36168 5.43334 7.4883 5.38213 7.61994 5.38287C7.75158 5.38361 7.87761 5.43623 7.97069 5.52931C8.06378 5.62239 8.1164 5.74843 8.11713 5.88007C8.11787 6.0117 8.06666 6.13832 7.97463 6.23244L6.70707 7.5H10.5C10.6326 7.5 10.7598 7.55268 10.8536 7.64645C10.9473 7.74022 11 7.86739 11 8C11 8.13261 10.9473 8.25979 10.8536 8.35355C10.7598 8.44732 10.6326 8.5 10.5 8.5Z" fill="#00C6A5"/>
</svg>
