<svg width="16" height="16" viewBox="0 0 16 16" fill="none" xmlns="http://www.w3.org/2000/svg">
<path opacity="0.2" d="M2.5 5.5H13.5V3C13.5 2.86739 13.4473 2.74021 13.3536 2.64645C13.2598 2.55268 13.1326 2.5 13 2.5H3C2.86739 2.5 2.74021 2.55268 2.64645 2.64645C2.55268 2.74021 2.5 2.86739 2.5 3V5.5Z" fill="#00C6A5"/>
<path d="M13 2H11.5V1.5C11.5 1.36739 11.4473 1.24021 11.3536 1.14645C11.2598 1.05268 11.1326 1 11 1C10.8674 1 10.7402 1.05268 10.6464 1.14645C10.5527 1.24021 10.5 1.36739 10.5 1.5V2H5.5V1.5C5.5 1.36739 5.44732 1.24021 5.35355 1.14645C5.25979 1.05268 5.13261 1 5 1C4.86739 1 4.74021 1.05268 4.64645 1.14645C4.55268 1.24021 4.5 1.36739 4.5 1.5V2H3C2.73487 2.0003 2.48069 2.10575 2.29322 2.29322C2.10575 2.48069 2.0003 2.73487 2 3V13C2.0003 13.2651 2.10575 13.5193 2.29322 13.7068C2.48069 13.8942 2.73487 13.9997 3 14H13C13.2651 13.9997 13.5193 13.8942 13.7068 13.7068C13.8942 13.5193 13.9997 13.2651 14 13V3C13.9997 2.73487 13.8942 2.48069 13.7068 2.29322C13.5193 2.10575 13.2651 2.0003 13 2ZM4.5 3V3.5C4.5 3.63261 4.55268 3.75978 4.64645 3.85355C4.74021 3.94732 4.86739 4 5 4C5.13261 4 5.25979 3.94732 5.35355 3.85355C5.44732 3.75978 5.5 3.63261 5.5 3.5V3H10.5V3.5C10.5 3.63261 10.5527 3.75978 10.6464 3.85355C10.7402 3.94732 10.8674 4 11 4C11.1326 4 11.2598 3.94732 11.3536 3.85355C11.4473 3.75978 11.5 3.63261 11.5 3.5V3H13L13.0001 5H3V3H4.5ZM13 13H3V6H13.0002L13.0006 13H13Z" fill="#00C6A5"/>
<path d="M7.33612 9.00519L7.8905 8.31231C7.94933 8.23876 7.98619 8.15009 7.99683 8.05651C8.00748 7.96294 7.99148 7.86825 7.95067 7.78337C7.90987 7.69848 7.84591 7.62685 7.76618 7.57672C7.68645 7.52659 7.59418 7.49999 7.5 7.5H5.75C5.61739 7.5 5.49021 7.55268 5.39645 7.64645C5.30268 7.74021 5.25 7.86739 5.25 8C5.25 8.13261 5.30268 8.25979 5.39645 8.35355C5.49021 8.44732 5.61739 8.5 5.75 8.5H6.45969L6.10956 8.93769C6.05074 9.01123 6.01388 9.0999 6.00323 9.19347C5.99258 9.28704 6.00858 9.38172 6.04938 9.4666C6.09018 9.55148 6.15412 9.62312 6.23384 9.67326C6.31356 9.72339 6.40582 9.74999 6.5 9.75C6.58222 9.74999 6.66316 9.77026 6.73568 9.809C6.80819 9.84775 6.87003 9.90378 6.91572 9.97213C6.96141 10.0405 6.98954 10.119 6.99762 10.2009C7.0057 10.2827 6.99348 10.3652 6.96205 10.4412C6.93061 10.5172 6.88092 10.5842 6.81739 10.6364C6.75385 10.6886 6.67843 10.7243 6.5978 10.7403C6.51718 10.7564 6.43383 10.7524 6.35514 10.7285C6.27645 10.7047 6.20486 10.6619 6.14669 10.6037C6.05267 10.511 5.92577 10.4592 5.79368 10.4596C5.6616 10.4601 5.53507 10.5128 5.44173 10.6063C5.34838 10.6997 5.29581 10.8263 5.29548 10.9584C5.29516 11.0905 5.34711 11.2173 5.44 11.3113C5.58796 11.4592 5.76524 11.5745 5.96043 11.6498C6.15562 11.7251 6.3644 11.7588 6.57337 11.7486C6.78234 11.7384 6.98687 11.6846 7.17381 11.5907C7.36075 11.4967 7.52596 11.3647 7.65884 11.2031C7.79172 11.0415 7.88931 10.8539 7.94535 10.6523C8.0014 10.4507 8.01465 10.2397 7.98426 10.0327C7.95386 9.82567 7.8805 9.62732 7.76888 9.45037C7.65726 9.27342 7.50985 9.12177 7.33612 9.00519Z" fill="#00C6A5"/>
<path d="M10.2236 7.55287C10.1406 7.51129 10.0476 7.49368 9.95511 7.50202C9.86261 7.51035 9.77427 7.5443 9.7 7.60005L8.7 8.35005C8.64747 8.38945 8.60322 8.43881 8.56976 8.49531C8.53631 8.55181 8.51431 8.61434 8.50503 8.67934C8.49574 8.74434 8.49935 8.81054 8.51564 8.87414C8.53194 8.93775 8.5606 8.99752 8.6 9.05005C8.6394 9.10258 8.68875 9.14684 8.74525 9.18029C8.80175 9.21374 8.86429 9.23574 8.92929 9.24503C8.99429 9.25431 9.06048 9.25071 9.12409 9.23441C9.1877 9.21811 9.24747 9.18945 9.3 9.15005L9.5 9.00005V11.2501C9.5 11.3827 9.55268 11.5098 9.64645 11.6036C9.74022 11.6974 9.86739 11.7501 10 11.7501C10.1326 11.7501 10.2598 11.6974 10.3536 11.6036C10.4473 11.5098 10.5 11.3827 10.5 11.2501V8.00005C10.5 7.9072 10.4741 7.81619 10.4253 7.73721C10.3765 7.65822 10.3067 7.59439 10.2236 7.55287Z" fill="#00C6A5"/>
</svg>
