<svg width="36" height="36" viewBox="0 0 36 36" fill="none" xmlns="http://www.w3.org/2000/svg">
<path opacity="0.2" d="M5.625 12.375H30.375V6.75C30.375 6.45163 30.2565 6.16548 30.0455 5.95451C29.8345 5.74353 29.5484 5.625 29.25 5.625H6.75C6.45163 5.625 6.16548 5.74353 5.95451 5.95451C5.74353 6.16548 5.625 6.45163 5.625 6.75V12.375Z" fill="#1C2020"/>
<path d="M29.25 4.5H25.875V3.375C25.875 3.07663 25.7565 2.79048 25.5455 2.5795C25.3345 2.36853 25.0484 2.25 24.75 2.25C24.4516 2.25 24.1655 2.36853 23.9545 2.5795C23.7435 2.79048 23.625 3.07663 23.625 3.375V4.5H12.375V3.375C12.375 3.07663 12.2565 2.79048 12.0455 2.5795C11.8345 2.36853 11.5484 2.25 11.25 2.25C10.9516 2.25 10.6655 2.36853 10.4545 2.5795C10.2435 2.79048 10.125 3.07663 10.125 3.375V4.5H6.75C6.15347 4.50067 5.58156 4.73794 5.15975 5.15975C4.73794 5.58156 4.50067 6.15347 4.5 6.75V29.25C4.50067 29.8465 4.73794 30.4184 5.15975 30.8403C5.58156 31.2621 6.15347 31.4993 6.75 31.5H29.25C29.8465 31.4993 30.4184 31.2621 30.8403 30.8403C31.2621 30.4184 31.4993 29.8465 31.5 29.25V6.75C31.4993 6.15347 31.2621 5.58156 30.8403 5.15975C30.4184 4.73794 29.8465 4.50067 29.25 4.5ZM10.125 6.75V7.875C10.125 8.17337 10.2435 8.45952 10.4545 8.6705C10.6655 8.88147 10.9516 9 11.25 9C11.5484 9 11.8345 8.88147 12.0455 8.6705C12.2565 8.45952 12.375 8.17337 12.375 7.875V6.75H23.625V7.875C23.625 8.17337 23.7435 8.45952 23.9545 8.6705C24.1655 8.88147 24.4516 9 24.75 9C25.0484 9 25.3345 8.88147 25.5455 8.6705C25.7565 8.45952 25.875 8.17337 25.875 7.875V6.75H29.25L29.2503 11.25H6.75V6.75H10.125ZM29.25 29.25H6.75V13.5H29.2504L29.2514 29.25H29.25Z" fill="#1C2020"/>
<path d="M16.5063 20.2612L17.7536 18.7023C17.886 18.5368 17.9689 18.3373 17.9929 18.1267C18.0168 17.9162 17.9808 17.7031 17.889 17.5122C17.7972 17.3212 17.6533 17.16 17.4739 17.0472C17.2945 16.9344 17.0869 16.8746 16.875 16.8746H12.9375C12.6391 16.8746 12.353 16.9931 12.142 17.2041C11.931 17.4151 11.8125 17.7012 11.8125 17.9996C11.8125 18.2979 11.931 18.5841 12.142 18.7951C12.353 19.006 12.6391 19.1246 12.9375 19.1246H14.5343L13.7465 20.1094C13.6142 20.2748 13.5312 20.4743 13.5073 20.6849C13.4833 20.8954 13.5193 21.1084 13.6111 21.2994C13.7029 21.4904 13.8468 21.6516 14.0261 21.7644C14.2055 21.8772 14.4131 21.9371 14.625 21.9371C14.81 21.9371 14.9921 21.9827 15.1553 22.0698C15.3184 22.157 15.4576 22.2831 15.5604 22.4369C15.6632 22.5907 15.7265 22.7674 15.7447 22.9515C15.7628 23.1356 15.7353 23.3213 15.6646 23.4923C15.5939 23.6632 15.4821 23.814 15.3391 23.9314C15.1962 24.0488 15.0265 24.1292 14.8451 24.1654C14.6636 24.2015 14.4761 24.1924 14.2991 24.1388C14.122 24.0852 13.9609 23.9887 13.83 23.858C13.6185 23.6493 13.333 23.5327 13.0358 23.5338C12.7386 23.5348 12.4539 23.6534 12.2439 23.8637C12.0339 24.074 11.9156 24.3588 11.9148 24.656C11.9141 24.9532 12.031 25.2386 12.24 25.4499C12.5729 25.7827 12.9718 26.0422 13.411 26.2116C13.8501 26.3811 14.3199 26.4568 14.7901 26.4339C15.2603 26.411 15.7205 26.2899 16.1411 26.0786C16.5617 25.8672 16.9334 25.5701 17.2324 25.2065C17.5314 24.8429 17.751 24.4208 17.877 23.9673C18.0031 23.5137 18.033 23.0388 17.9646 22.5731C17.8962 22.1073 17.7311 21.661 17.48 21.2629C17.2288 20.8648 16.8972 20.5236 16.5063 20.2612Z" fill="#1C2020"/>
<path d="M23.0032 16.9934C22.8163 16.8999 22.6071 16.8602 22.399 16.879C22.1909 16.8977 21.9921 16.9741 21.825 17.0996L19.575 18.7871C19.4568 18.8757 19.3572 18.9868 19.282 19.1139C19.2067 19.241 19.1572 19.3817 19.1363 19.528C19.1154 19.6742 19.1235 19.8232 19.1602 19.9663C19.1969 20.1094 19.2614 20.2439 19.35 20.3621C19.4386 20.4803 19.5497 20.5798 19.6768 20.6551C19.8039 20.7304 19.9446 20.7799 20.0909 20.8008C20.2372 20.8217 20.3861 20.8135 20.5292 20.7769C20.6723 20.7402 20.8068 20.6757 20.925 20.5871L21.375 20.2496V25.3121C21.375 25.6104 21.4935 25.8966 21.7045 26.1076C21.9155 26.3185 22.2016 26.4371 22.5 26.4371C22.7984 26.4371 23.0845 26.3185 23.2955 26.1076C23.5065 25.8966 23.625 25.6104 23.625 25.3121V17.9996C23.625 17.7907 23.5668 17.5859 23.457 17.4082C23.3472 17.2305 23.19 17.0868 23.0032 16.9934Z" fill="#1C2020"/>
</svg>
