<svg width="14" height="14" viewBox="0 0 14 14" fill="none" xmlns="http://www.w3.org/2000/svg">
<path d="M7 0.5C5.71443 0.5 4.45772 0.881218 3.3888 1.59545C2.31988 2.30968 1.48676 3.32484 0.994786 4.51256C0.502816 5.70028 0.374095 7.00721 0.624899 8.26809C0.875703 9.52896 1.49477 10.6872 2.40381 11.5962C3.31285 12.5052 4.47104 13.1243 5.73192 13.3751C6.99279 13.6259 8.29973 13.4972 9.48745 13.0052C10.6752 12.5132 11.6903 11.6801 12.4046 10.6112C13.1188 9.54229 13.5 8.28558 13.5 7C13.498 5.2767 12.8126 3.62456 11.594 2.406C10.3754 1.18744 8.7233 0.501985 7 0.5ZM9.96157 7.19094C9.93646 7.25197 9.89952 7.30744 9.85288 7.35413L7.73244 9.47463C7.63832 9.56666 7.51171 9.61787 7.38007 9.61713C7.24843 9.61639 7.1224 9.56378 7.02931 9.47069C6.93623 9.37761 6.88361 9.25157 6.88287 9.11994C6.88214 8.9883 6.93334 8.86168 7.02538 8.76756L8.29294 7.5H4.5C4.3674 7.5 4.24022 7.44732 4.14645 7.35355C4.05268 7.25979 4 7.13261 4 7C4 6.86739 4.05268 6.74022 4.14645 6.64645C4.24022 6.55268 4.3674 6.5 4.5 6.5H8.293L7.02538 5.23244C6.93334 5.13832 6.88214 5.0117 6.88287 4.88007C6.88361 4.74843 6.93623 4.62239 7.02931 4.52931C7.1224 4.43623 7.24843 4.38361 7.38007 4.38287C7.51171 4.38213 7.63832 4.43334 7.73244 4.52538L9.85288 6.64588C9.92271 6.71589 9.97028 6.80497 9.98962 6.90194C10.009 6.99891 9.9992 7.09944 9.96157 7.19088V7.19094Z" fill="#00C6A5"/>
</svg>
