<svg width="36" height="36" viewBox="0 0 36 36" fill="none" xmlns="http://www.w3.org/2000/svg">
<path opacity="0.2" d="M3.375 8.4375H21.375C22.5685 8.4375 23.7131 8.91161 24.557 9.75552C25.4009 10.5994 25.875 11.744 25.875 12.9375V26.4375C25.875 26.7359 25.7565 27.022 25.5455 27.233C25.3345 27.444 25.0484 27.5625 24.75 27.5625H6.75C5.55653 27.5625 4.41193 27.0884 3.56802 26.2445C2.72411 25.4006 2.25 24.256 2.25 23.0625V9.5625C2.25 9.26413 2.36853 8.97798 2.5795 8.76701C2.79048 8.55603 3.07663 8.4375 3.375 8.4375Z" fill="#1C2020"/>
<path d="M34.3148 10.277C34.1443 10.1781 33.9509 10.1257 33.7538 10.125C33.5568 10.1244 33.363 10.1755 33.1919 10.2732L27 13.8113V12.9375C26.9983 11.4462 26.4051 10.0164 25.3506 8.96192C24.2961 7.90739 22.8663 7.31421 21.375 7.3125H3.375C2.77847 7.31317 2.20656 7.55044 1.78475 7.97225C1.36294 8.39406 1.12567 8.96597 1.125 9.5625V23.0625C1.12671 24.5538 1.71989 25.9836 2.77442 27.0381C3.82894 28.0926 5.25868 28.6858 6.75 28.6875H24.75C25.3465 28.6868 25.9184 28.4496 26.3403 28.0278C26.7621 27.6059 26.9993 27.034 27 26.4375V22.1887L33.1919 25.7268C33.3629 25.8245 33.5567 25.8757 33.7538 25.875C33.9508 25.8743 34.1442 25.8219 34.3147 25.723C34.4851 25.6241 34.6266 25.4822 34.7249 25.3114C34.8232 25.1406 34.875 24.9471 34.875 24.75V11.25C34.875 11.053 34.8233 10.8594 34.725 10.6886C34.6266 10.5178 34.4852 10.3759 34.3148 10.277ZM24.75 26.4375H6.75C5.8552 26.4365 4.99734 26.0806 4.36462 25.4479C3.73191 24.8152 3.376 23.9573 3.375 23.0625V9.5625H21.375C22.2698 9.5635 23.1277 9.91941 23.7604 10.5521C24.3931 11.1848 24.749 12.0427 24.75 12.9375L24.7503 15.7667V15.7784L24.7507 20.2151C24.7504 20.2269 24.7507 20.2386 24.7507 20.2503L24.7514 26.4375H24.75ZM32.625 22.8115L27 19.5971V16.4029L32.625 13.1885V22.8115Z" fill="#1C2020"/>
</svg>
