<svg width="36" height="36" viewBox="0 0 36 36" fill="none" xmlns="http://www.w3.org/2000/svg">
<path opacity="0.2" d="M29.25 5.625H6.75C6.12868 5.625 5.625 6.12868 5.625 6.75V29.25C5.625 29.8713 6.12868 30.375 6.75 30.375H29.25C29.8713 30.375 30.375 29.8713 30.375 29.25V6.75C30.375 6.12868 29.8713 5.625 29.25 5.625Z" fill="#00C6A5"/>
<path d="M29.25 4.5H6.75C6.15347 4.50067 5.58156 4.73794 5.15975 5.15975C4.73794 5.58156 4.50067 6.15347 4.5 6.75V29.25C4.50067 29.8465 4.73794 30.4184 5.15975 30.8403C5.58156 31.2621 6.15347 31.4993 6.75 31.5H29.25C29.8465 31.4993 30.4184 31.2621 30.8403 30.8403C31.2621 30.4184 31.4993 29.8465 31.5 29.25V6.75C31.4993 6.15347 31.2621 5.58156 30.8403 5.15975C30.4184 4.73794 29.8465 4.50067 29.25 4.5ZM29.25 29.25H6.75V6.75H29.25L29.2514 29.25H29.25Z" fill="#00C6A5"/>
</svg>
