<svg width="36" height="36" viewBox="0 0 36 36" fill="none" xmlns="http://www.w3.org/2000/svg">
<path opacity="0.2" d="M29.25 5.625H6.75C6.12868 5.625 5.625 6.12868 5.625 6.75V29.25C5.625 29.8713 6.12868 30.375 6.75 30.375H29.25C29.8713 30.375 30.375 29.8713 30.375 29.25V6.75C30.375 6.12868 29.8713 5.625 29.25 5.625Z" fill="#00C6A5"/>
<path d="M23.4111 13.8116L15.9377 20.9452L12.5894 17.7491C12.4829 17.6453 12.3569 17.5636 12.2186 17.5088C12.0803 17.454 11.9326 17.4272 11.7839 17.4299C11.6352 17.4326 11.4885 17.4647 11.3523 17.5245C11.2161 17.5842 11.093 17.6704 10.9904 17.778C10.8877 17.8856 10.8073 18.0125 10.754 18.1513C10.7007 18.2902 10.6754 18.4382 10.6797 18.5869C10.6839 18.7355 10.7176 18.8819 10.7788 19.0175C10.84 19.153 10.9274 19.2751 11.0361 19.3767L15.1611 23.3142C15.3703 23.5139 15.6485 23.6253 15.9377 23.6253C16.227 23.6253 16.5051 23.5139 16.7144 23.3142L24.9644 15.4392C25.0731 15.3376 25.1606 15.2155 25.2218 15.08C25.2829 14.9444 25.3166 14.798 25.3209 14.6494C25.3251 14.5007 25.2999 14.3526 25.2465 14.2138C25.1932 14.075 25.1129 13.9481 25.0102 13.8405C24.9075 13.7329 24.7845 13.6467 24.6483 13.587C24.5121 13.5272 24.3654 13.4951 24.2167 13.4924C24.068 13.4897 23.9202 13.5165 23.7819 13.5713C23.6436 13.6261 23.5176 13.7078 23.4111 13.8116Z" fill="#00C6A5"/>
<path d="M29.25 4.5H6.75C6.15347 4.50067 5.58156 4.73794 5.15975 5.15975C4.73794 5.58156 4.50067 6.15347 4.5 6.75V29.25C4.50067 29.8465 4.73794 30.4184 5.15975 30.8403C5.58156 31.2621 6.15347 31.4993 6.75 31.5H29.25C29.8465 31.4993 30.4184 31.2621 30.8403 30.8403C31.2621 30.4184 31.4993 29.8465 31.5 29.25V6.75C31.4993 6.15347 31.2621 5.58156 30.8403 5.15975C30.4184 4.73794 29.8465 4.50067 29.25 4.5ZM29.25 29.25H6.75V6.75H29.25L29.2514 29.25H29.25Z" fill="#00C6A5"/>
</svg>
