<svg width="36" height="36" viewBox="0 0 36 36" fill="none" xmlns="http://www.w3.org/2000/svg">
<path opacity="0.2" d="M29.2511 12.375H21.375V4.5L29.2511 12.375Z" fill="#1C2020"/>
<path d="M30.3758 12.375C30.3759 12.2244 30.3457 12.0754 30.2869 11.9367C30.2281 11.7981 30.1421 11.6727 30.0338 11.5681L22.1702 3.70462C22.1442 3.67866 22.117 3.654 22.0886 3.63066C22.0816 3.62503 22.0743 3.62011 22.0671 3.61463C22.0454 3.59726 22.023 3.58071 22 3.56498C21.9937 3.56077 21.9869 3.55725 21.9806 3.55303C21.9561 3.53706 21.931 3.52205 21.9054 3.50803C21.9007 3.50564 21.8957 3.50367 21.8909 3.50114C21.8631 3.48653 21.8347 3.47311 21.8058 3.46092C21.8026 3.45952 21.7992 3.45867 21.7958 3.45727C21.7652 3.44473 21.7341 3.43356 21.7025 3.4238C21.6988 3.42267 21.6949 3.42211 21.6912 3.42098C21.6599 3.41163 21.6282 3.40366 21.5961 3.39708C21.5869 3.39525 21.5774 3.39441 21.5682 3.39286C21.5414 3.38808 21.5144 3.38344 21.487 3.38063C21.4497 3.37687 21.4122 3.375 21.3747 3.375H7.87354C7.277 3.37567 6.7051 3.61294 6.28328 4.03475C5.86147 4.45656 5.62421 5.02847 5.62354 5.625V30.375C5.62421 30.9715 5.86147 31.5434 6.28328 31.9653C6.7051 32.3871 7.277 32.6243 7.87354 32.625H28.1247C28.7212 32.6243 29.2931 32.3871 29.7149 31.9653C30.1367 31.5434 30.374 30.9715 30.3747 30.375V12.3975C30.3748 12.3899 30.3758 12.3826 30.3758 12.375ZM22.4997 7.21603L26.5338 11.25H22.4997V7.21603ZM28.1247 30.375H7.87354V5.625H20.2497V12.375C20.2497 12.6734 20.3682 12.9595 20.5792 13.1705C20.7901 13.3815 21.0763 13.5 21.3747 13.5H28.1247L28.1261 30.375H28.1247ZM22.7327 20.017C22.8371 20.1215 22.92 20.2455 22.9765 20.382C23.0331 20.5185 23.0622 20.6648 23.0622 20.8125C23.0622 20.9602 23.0331 21.1065 22.9765 21.243C22.92 21.3795 22.8371 21.5035 22.7327 21.608C22.6282 21.7125 22.5042 21.7954 22.3677 21.8519C22.2312 21.9084 22.0849 21.9375 21.9372 21.9375C21.7894 21.9375 21.6431 21.9084 21.5066 21.8519C21.3701 21.7954 21.2461 21.7125 21.1416 21.608L19.1247 19.5909V25.875C19.1247 26.1734 19.0061 26.4595 18.7952 26.6705C18.5842 26.8815 18.298 27 17.9997 27C17.7013 27 17.4151 26.8815 17.2042 26.6705C16.9932 26.4595 16.8747 26.1734 16.8747 25.875V19.5909L14.8577 21.608C14.6467 21.819 14.3605 21.9375 14.0622 21.9375C13.7638 21.9375 13.4776 21.819 13.2666 21.608C13.0557 21.397 12.9371 21.1109 12.9371 20.8125C12.9371 20.5141 13.0557 20.228 13.2666 20.017L17.2039 16.0799C17.2302 16.0535 17.2579 16.0284 17.2868 16.0048C17.2989 15.995 17.3116 15.9864 17.324 15.9771C17.3408 15.9643 17.3577 15.9511 17.3753 15.9393C17.3906 15.9292 17.4065 15.9203 17.4223 15.9109C17.4379 15.9013 17.4533 15.8915 17.4696 15.8827C17.4858 15.8742 17.5023 15.8669 17.5189 15.8591C17.5356 15.8511 17.5522 15.8428 17.5695 15.8356C17.5854 15.829 17.6014 15.8238 17.6176 15.8181C17.6361 15.8113 17.6544 15.8041 17.6734 15.7984C17.6894 15.7936 17.7056 15.7901 17.7216 15.786C17.7412 15.7811 17.7603 15.7757 17.7801 15.7718C17.7984 15.7681 17.817 15.766 17.8354 15.7634C17.8533 15.7607 17.8708 15.7573 17.889 15.7556C17.9216 15.7524 17.9544 15.751 17.9873 15.7506C17.9915 15.7506 17.9954 15.75 17.9997 15.75C18.0039 15.75 18.008 15.7506 18.012 15.7506C18.0449 15.751 18.0777 15.7524 18.1103 15.7556C18.1285 15.7573 18.1461 15.7607 18.1639 15.7634C18.1823 15.766 18.2009 15.7681 18.2192 15.7718C18.2389 15.7757 18.2581 15.7811 18.2777 15.786C18.2937 15.7902 18.3099 15.7936 18.3259 15.7984C18.3449 15.8041 18.3632 15.8113 18.3817 15.8181C18.3979 15.8237 18.4141 15.829 18.4298 15.8356C18.4471 15.8427 18.4637 15.8511 18.4805 15.8591C18.4971 15.8669 18.5135 15.8742 18.5297 15.8827C18.546 15.8915 18.5615 15.9013 18.5771 15.9109C18.5928 15.9203 18.6087 15.9292 18.624 15.9393C18.6418 15.9511 18.6585 15.9643 18.6754 15.9771C18.6877 15.9864 18.7004 15.995 18.7125 16.0048C18.7413 16.0286 18.7692 16.0535 18.7956 16.0799L22.7327 20.017Z" fill="#1C2020"/>
</svg>
