<svg width="48" height="48" viewBox="0 0 48 48" fill="none" xmlns="http://www.w3.org/2000/svg">
<path opacity="0.2" d="M28.5 6V16.5H39.0015L28.5 6Z" fill="black"/>
<path d="M40.501 16.5C40.5012 16.2992 40.4609 16.1005 40.3825 15.9157C40.3042 15.7308 40.1894 15.5636 40.045 15.4241L29.5602 4.9395C29.5256 4.90487 29.4894 4.872 29.4515 4.84088C29.4421 4.83338 29.4324 4.82681 29.4228 4.8195C29.3938 4.79635 29.364 4.77427 29.3334 4.75331C29.3249 4.74769 29.3159 4.743 29.3075 4.73738C29.2748 4.71608 29.2414 4.69606 29.2072 4.67737C29.201 4.67419 29.1942 4.67156 29.1879 4.66819C29.1508 4.6487 29.113 4.63081 29.0744 4.61456C29.0701 4.61269 29.0656 4.61137 29.0611 4.60969C29.0203 4.59297 28.9787 4.57808 28.9366 4.56506C28.9317 4.56356 28.9265 4.56262 28.9216 4.56131C28.8798 4.54884 28.8376 4.5382 28.7949 4.52944C28.7825 4.527 28.7699 4.52588 28.7575 4.52381C28.7219 4.51744 28.6859 4.51125 28.6494 4.5075C28.5999 4.5025 28.5499 4.5 28.4995 4.5H10.498C9.70267 4.50089 8.94013 4.81725 8.37771 5.37967C7.8153 5.94208 7.49894 6.70462 7.49805 7.5V40.5C7.49894 41.2954 7.8153 42.0579 8.37771 42.6203C8.94013 43.1827 9.70267 43.4991 10.498 43.5H37.4995C38.2949 43.4991 39.0575 43.1827 39.6199 42.6203C40.1823 42.0579 40.4987 41.2954 40.4995 40.5V16.53C40.4997 16.5199 40.501 16.5101 40.501 16.5ZM29.9995 9.62138L35.3784 15H29.9995V9.62138ZM37.4995 40.5H10.498V7.5H26.9995V16.5C26.9995 16.8978 27.1576 17.2794 27.4389 17.5607C27.7202 17.842 28.1017 18 28.4995 18H37.4995L37.5014 40.5H37.4995Z" fill="black"/>
<path d="M30 24H18C17.6022 24 17.2206 24.158 16.9393 24.4393C16.658 24.7206 16.5 25.1022 16.5 25.5C16.5 25.8978 16.658 26.2794 16.9393 26.5607C17.2206 26.842 17.6022 27 18 27H30C30.3978 27 30.7794 26.842 31.0607 26.5607C31.342 26.2794 31.5 25.8978 31.5 25.5C31.5 25.1022 31.342 24.7206 31.0607 24.4393C30.7794 24.158 30.3978 24 30 24Z" fill="black"/>
<path d="M30 30H18C17.6022 30 17.2206 30.158 16.9393 30.4393C16.658 30.7206 16.5 31.1022 16.5 31.5C16.5 31.8978 16.658 32.2794 16.9393 32.5607C17.2206 32.842 17.6022 33 18 33H30C30.3978 33 30.7794 32.842 31.0607 32.5607C31.342 32.2794 31.5 31.8978 31.5 31.5C31.5 31.1022 31.342 30.7206 31.0607 30.4393C30.7794 30.158 30.3978 30 30 30Z" fill="black"/>
</svg>
