<svg width="36" height="36" viewBox="0 0 36 36" fill="none" xmlns="http://www.w3.org/2000/svg">
<path opacity="0.2" d="M21.375 4.5V12.375H29.2511L21.375 4.5Z" fill="#1C2020"/>
<path d="M30.3763 12.375C30.3764 12.2249 30.3463 12.0762 30.2879 11.9379C30.2294 11.7996 30.1438 11.6745 30.0361 11.5699L22.1707 3.70448C22.1594 3.69323 22.1472 3.68339 22.1355 3.67256C22.1203 3.65864 22.1056 3.6443 22.0897 3.63108C22.0791 3.6225 22.0677 3.61491 22.0569 3.60661C22.0386 3.59255 22.0203 3.5782 22.0011 3.56527C21.9923 3.5595 21.9831 3.55458 21.9743 3.54895C21.952 3.53489 21.9296 3.52083 21.9063 3.50831C21.9 3.50494 21.8935 3.50241 21.8872 3.49917C21.8608 3.48538 21.8339 3.47267 21.8066 3.46106C21.8024 3.45923 21.7977 3.45797 21.7935 3.45628C21.7638 3.44419 21.7337 3.4334 21.7031 3.42394C21.6986 3.42253 21.6941 3.42169 21.6896 3.42042C21.659 3.41132 21.628 3.40353 21.5968 3.39708C21.5866 3.39511 21.5762 3.39427 21.5661 3.39244C21.5401 3.38794 21.5141 3.3833 21.4875 3.38077C21.4502 3.37695 21.4127 3.37503 21.3751 3.375H7.87402C7.27749 3.37567 6.70558 3.61294 6.28377 4.03475C5.86196 4.45656 5.62469 5.02847 5.62402 5.625V30.375C5.62469 30.9715 5.86196 31.5434 6.28377 31.9653C6.70558 32.3871 7.27749 32.6243 7.87402 32.625H28.1251C28.7217 32.6243 29.2936 32.3871 29.7154 31.9653C30.1372 31.5434 30.3745 30.9715 30.3751 30.375V12.3968C30.3753 12.3895 30.3763 12.3823 30.3763 12.375ZM22.5001 7.21589L26.5341 11.25H22.5001V7.21589ZM28.1251 30.375H7.87402V5.625H20.2501V12.375C20.2501 12.6734 20.3687 12.9595 20.5796 13.1705C20.7906 13.3815 21.0768 13.5 21.3751 13.5H28.1251L28.1266 30.375H28.1251Z" fill="#1C2020"/>
<path d="M21.375 20.25H19.125V18C19.125 17.7016 19.0065 17.4155 18.7955 17.2045C18.5845 16.9935 18.2984 16.875 18 16.875C17.7016 16.875 17.4155 16.9935 17.2045 17.2045C16.9935 17.4155 16.875 17.7016 16.875 18V20.25H14.625C14.3266 20.25 14.0405 20.3685 13.8295 20.5795C13.6185 20.7905 13.5 21.0766 13.5 21.375C13.5 21.6734 13.6185 21.9595 13.8295 22.1705C14.0405 22.3815 14.3266 22.5 14.625 22.5H16.875V24.75C16.875 25.0484 16.9935 25.3345 17.2045 25.5455C17.4155 25.7565 17.7016 25.875 18 25.875C18.2984 25.875 18.5845 25.7565 18.7955 25.5455C19.0065 25.3345 19.125 25.0484 19.125 24.75V22.5H21.375C21.6734 22.5 21.9595 22.3815 22.1705 22.1705C22.3815 21.9595 22.5 21.6734 22.5 21.375C22.5 21.0766 22.3815 20.7905 22.1705 20.5795C21.9595 20.3685 21.6734 20.25 21.375 20.25Z" fill="#1C2020"/>
</svg>
