<svg width="36" height="36" viewBox="0 0 36 36" fill="none" xmlns="http://www.w3.org/2000/svg">
<path opacity="0.2" d="M21.3699 30.3739V21.3739H14.6199V30.3739L5.62061 30.375V16.2477C5.62059 16.0909 5.65332 15.9359 5.71672 15.7925C5.78012 15.6492 5.87278 15.5206 5.98876 15.4152L17.2379 5.18696C17.445 4.99866 17.7149 4.89432 17.9948 4.89432C18.2747 4.89432 18.5445 4.99866 18.7516 5.18696L30.0023 15.4152C30.1183 15.5206 30.211 15.6492 30.2744 15.7925C30.3378 15.9359 30.3706 16.0909 30.3706 16.2477V30.375L21.3699 30.3739Z" fill="#00C6A5"/>
<path d="M33.7455 29.25H31.4955V16.2477C31.4952 15.9342 31.4295 15.6243 31.3028 15.3377C31.176 15.051 30.9908 14.7939 30.7592 14.5828L19.5083 4.35447C19.0951 3.97599 18.5551 3.76605 17.9947 3.76605C17.4343 3.76605 16.8943 3.97599 16.4811 4.35447L5.23192 14.5828C5.00021 14.7939 4.81506 15.051 4.68828 15.3376C4.5615 15.6243 4.49588 15.9342 4.49561 16.2477V29.25H2.24561C1.94724 29.25 1.66109 29.3685 1.45011 29.5795C1.23913 29.7905 1.12061 30.0766 1.12061 30.375C1.12061 30.6734 1.23913 30.9595 1.45011 31.1705C1.66109 31.3815 1.94724 31.5 2.24561 31.5H33.7456C34.044 31.5 34.3301 31.3815 34.5411 31.1705C34.7521 30.9595 34.8706 30.6734 34.8706 30.375C34.8706 30.0766 34.7521 29.7905 34.5411 29.5795C34.3301 29.3685 34.0438 29.25 33.7455 29.25ZM6.74546 16.2475L17.9948 6.01932L29.2456 16.2477V29.25H22.4948V22.4989C22.4941 21.9024 22.2568 21.3304 21.835 20.9086C21.4132 20.4868 20.8413 20.2496 20.2448 20.2489H15.7448C15.1482 20.2496 14.5763 20.4868 14.1545 20.9086C13.7327 21.3304 13.4954 21.9024 13.4948 22.4989V29.25H6.74546V16.2475ZM20.2449 29.25H15.7449V22.4989H20.2449V29.25Z" fill="#00C6A5"/>
</svg>
