<svg width="335" height="135" viewBox="0 0 335 135" fill="none" xmlns="http://www.w3.org/2000/svg">
<path d="M51.1898 56.6862C46.2802 61.307 40.4561 63.6174 33.7174 63.6174C29.963 63.6174 26.6418 62.9676 23.7538 61.668C20.8658 60.3684 18.4591 58.6356 16.5338 56.4696C14.6085 54.3036 13.1404 51.8007 12.1296 48.9608C11.1669 46.1209 10.6856 43.1607 10.6856 40.0802C10.6856 36.8071 11.191 33.8229 12.2018 31.1274C13.2607 28.3838 14.7288 26.0253 16.606 24.0518C18.4832 22.0783 20.6973 20.5381 23.2484 19.431C25.8476 18.3239 28.6634 17.7704 31.6958 17.7704C33.7655 17.7704 35.6427 18.0111 37.3274 18.4924C39.0602 18.9737 40.5764 19.5995 41.876 20.3696C43.2237 21.1397 44.3067 22.0302 45.125 23.041C45.9914 24.0037 46.5931 24.9904 46.93 26.0012H52.2728C51.5508 24.3647 50.6122 22.8485 49.457 21.4526C48.3499 20.0567 46.9541 18.8534 45.2694 17.8426C43.5847 16.8318 41.6113 16.0376 39.349 15.46C37.0867 14.8824 34.5116 14.5936 31.6236 14.5936C27.436 14.5936 23.6094 15.1953 20.1438 16.3986C16.7263 17.6019 13.7902 19.3347 11.3354 21.597C8.88059 23.8111 6.97932 26.5066 5.63159 29.6834C4.28386 32.8121 3.60999 36.3258 3.60999 40.2246C3.60999 43.5939 4.13946 46.8911 5.19839 50.116C6.30546 53.2928 7.99012 56.1327 10.2524 58.6356C12.5147 61.0904 15.4027 63.0879 18.9164 64.6282C22.4301 66.1203 26.6177 66.8664 31.4792 66.8664C34.5597 66.8664 37.3033 66.5776 39.71 66C42.1648 65.4224 44.2827 64.7245 46.0636 63.9062C47.8927 63.0398 49.4089 62.1253 50.6122 61.1626C51.8155 60.1999 52.7301 59.3576 53.3558 58.6356L51.1898 56.6862Z" fill="#00C6A5"/>
<path d="M132.576 15.46L153.731 66H158.063L178.567 15.46H174.813L157.99 57.0472H157.702L140.374 15.46H132.576Z" fill="#00C6A5"/>
<path d="M56.344 65V39.66H59.6382V63.009H72.7064V65H56.344ZM92.2024 57.5428L95.6776 65H99.189L87.3878 39.66H85.5778L74.8626 65H76.5278L79.7134 57.5428H92.2024ZM91.4422 55.9138H80.4012L85.614 43.7144H85.7588L91.4422 55.9138ZM101.63 58.5926C101.678 59.6303 101.943 60.5715 102.426 61.4162C102.933 62.2609 103.609 62.9849 104.453 63.5882C105.322 64.1674 106.336 64.6259 107.494 64.9638C108.652 65.2775 109.919 65.4344 111.295 65.4344C112.695 65.4344 113.95 65.2655 115.06 64.9276C116.194 64.5897 117.159 64.1071 117.956 63.4796C118.752 62.8521 119.368 62.0919 119.802 61.199C120.236 60.3061 120.454 59.3166 120.454 58.2306C120.454 56.7343 120.08 55.5156 119.331 54.5744C118.583 53.6091 117.642 52.8127 116.508 52.1852C115.398 51.5336 114.179 50.9906 112.852 50.5562C111.548 50.1218 110.33 49.6633 109.195 49.1806C108.085 48.6979 107.156 48.1429 106.408 47.5154C105.66 46.8879 105.286 46.0553 105.286 45.0176C105.286 44.4384 105.407 43.8954 105.648 43.3886C105.913 42.8818 106.287 42.4474 106.77 42.0854C107.277 41.6993 107.892 41.3976 108.616 41.1804C109.34 40.9391 110.173 40.8184 111.114 40.8184C112.683 40.8184 114.01 41.1563 115.096 41.832C116.206 42.4836 116.858 43.5213 117.051 44.9452H119.512C119.368 44.0523 119.042 43.2559 118.535 42.556C118.028 41.832 117.389 41.2287 116.616 40.746C115.844 40.2392 114.963 39.8651 113.974 39.6238C113.009 39.3583 111.995 39.2256 110.933 39.2256C109.823 39.2256 108.761 39.3704 107.747 39.66C106.758 39.9496 105.877 40.3719 105.105 40.927C104.357 41.4821 103.753 42.1819 103.295 43.0266C102.86 43.8713 102.643 44.8366 102.643 45.9226C102.643 47.3465 103.005 48.4928 103.729 49.3616C104.453 50.2304 105.358 50.9544 106.444 51.5336C107.554 52.1128 108.749 52.6075 110.028 53.0178C111.307 53.4281 112.49 53.8987 113.576 54.4296C114.686 54.9364 115.603 55.5639 116.327 56.312C117.051 57.0601 117.413 58.0617 117.413 59.3166C117.413 60.8853 116.834 62.0316 115.675 62.7556C114.541 63.4796 113.021 63.8416 111.114 63.8416C109.594 63.8416 108.375 63.6485 107.458 63.2624C106.541 62.8521 105.841 62.3695 105.358 61.8144C104.876 61.2593 104.55 60.6922 104.381 60.113C104.212 59.5097 104.115 59.0029 104.091 58.5926H101.63ZM124.255 58.5926C124.303 59.6303 124.568 60.5715 125.051 61.4162C125.558 62.2609 126.234 62.9849 127.078 63.5882C127.947 64.1674 128.961 64.6259 130.119 64.9638C131.277 65.2775 132.544 65.4344 133.92 65.4344C135.32 65.4344 136.575 65.2655 137.685 64.9276C138.819 64.5897 139.784 64.1071 140.581 63.4796C141.377 62.8521 141.993 62.0919 142.427 61.199C142.861 60.3061 143.079 59.3166 143.079 58.2306C143.079 56.7343 142.705 55.5156 141.956 54.5744C141.208 53.6091 140.267 52.8127 139.133 52.1852C138.023 51.5336 136.804 50.9906 135.477 50.5562C134.173 50.1218 132.955 49.6633 131.82 49.1806C130.71 48.6979 129.781 48.1429 129.033 47.5154C128.285 46.8879 127.911 46.0553 127.911 45.0176C127.911 44.4384 128.032 43.8954 128.273 43.3886C128.538 42.8818 128.912 42.4474 129.395 42.0854C129.902 41.6993 130.517 41.3976 131.241 41.1804C131.965 40.9391 132.798 40.8184 133.739 40.8184C135.308 40.8184 136.635 41.1563 137.721 41.832C138.831 42.4836 139.483 43.5213 139.676 44.9452H142.137C141.993 44.0523 141.667 43.2559 141.16 42.556C140.653 41.832 140.014 41.2287 139.241 40.746C138.469 40.2392 137.588 39.8651 136.599 39.6238C135.634 39.3583 134.62 39.2256 133.558 39.2256C132.448 39.2256 131.386 39.3704 130.372 39.66C129.383 39.9496 128.502 40.3719 127.73 40.927C126.982 41.4821 126.378 42.1819 125.92 43.0266C125.485 43.8713 125.268 44.8366 125.268 45.9226C125.268 47.3465 125.63 48.4928 126.354 49.3616C127.078 50.2304 127.983 50.9544 129.069 51.5336C130.179 52.1128 131.374 52.6075 132.653 53.0178C133.932 53.4281 135.115 53.8987 136.201 54.4296C137.311 54.9364 138.228 55.5639 138.952 56.312C139.676 57.0601 140.038 58.0617 140.038 59.3166C140.038 60.8853 139.459 62.0316 138.3 62.7556C137.166 63.4796 135.646 63.8416 133.739 63.8416C132.219 63.8416 131 63.6485 130.083 63.2624C129.166 62.8521 128.466 62.3695 127.983 61.8144C127.501 61.2593 127.175 60.6922 127.006 60.113C126.837 59.5097 126.74 59.0029 126.716 58.5926H124.255Z" fill="#00C6A5"/>
<path d="M174.344 39.66V65H177.638V53.8142H179.231C179.907 53.8142 180.462 53.8745 180.896 53.9952C181.355 54.1159 181.765 54.321 182.127 54.6106C182.489 54.9002 182.827 55.2743 183.141 55.7328C183.454 56.1913 183.828 56.7585 184.263 57.4342L187.123 61.6696C187.485 62.2247 187.835 62.7315 188.172 63.19C188.534 63.6485 188.921 64.0467 189.331 64.3846C189.741 64.6983 190.2 64.9517 190.706 65.1448C191.237 65.3379 191.865 65.4344 192.589 65.4344C193.12 65.4344 193.554 65.4103 193.892 65.362C194.23 65.3137 194.568 65.1931 194.906 65V63.6606C194.785 63.6847 194.664 63.7089 194.544 63.733C194.423 63.733 194.302 63.733 194.182 63.733C193.675 63.733 193.228 63.6606 192.842 63.5158C192.456 63.371 192.094 63.1659 191.756 62.9004C191.418 62.6108 191.093 62.2729 190.779 61.8868C190.465 61.4765 190.139 61.018 189.801 60.5112C188.788 59.0391 188.003 57.8686 187.448 56.9998C186.893 56.1069 186.447 55.4191 186.109 54.9364C185.795 54.4537 185.53 54.1038 185.313 53.8866C185.12 53.6694 184.878 53.4884 184.589 53.3436L184.227 53.1626V53.0178C185.385 52.9454 186.374 52.692 187.195 52.2576C188.04 51.8232 188.727 51.2802 189.258 50.6286C189.789 49.977 190.175 49.2771 190.417 48.529C190.658 47.7567 190.779 47.0086 190.779 46.2846C190.779 45.633 190.646 44.9211 190.381 44.1488C190.139 43.3765 189.705 42.6646 189.077 42.013C188.474 41.3373 187.641 40.7822 186.58 40.3478C185.518 39.8893 184.178 39.66 182.561 39.66H174.344ZM177.638 41.2528H181.294C182.211 41.2528 183.032 41.3855 183.756 41.651C184.504 41.9165 185.144 42.2905 185.675 42.7732C186.206 43.2317 186.604 43.7868 186.869 44.4384C187.159 45.09 187.304 45.8019 187.304 46.5742C187.304 47.2258 187.171 47.8895 186.905 48.5652C186.664 49.2168 186.29 49.8201 185.783 50.3752C185.276 50.9061 184.649 51.3405 183.901 51.6784C183.177 52.0163 182.332 52.1852 181.367 52.1852H177.638V41.2528ZM197.793 52.33C197.793 53.6815 198.047 55.1295 198.554 56.674C199.085 58.1944 199.905 59.6062 201.015 60.9094C202.125 62.2126 203.537 63.2986 205.251 64.1674C206.964 65.0121 209.015 65.4344 211.405 65.4344C213.022 65.4344 214.482 65.2413 215.785 64.8552C217.112 64.4449 218.295 63.9019 219.332 63.2262C220.394 62.5505 221.311 61.7782 222.084 60.9094C222.856 60.0165 223.483 59.0873 223.966 58.122C224.473 57.1325 224.847 56.1431 225.088 55.1536C225.354 54.1641 225.486 53.2229 225.486 52.33C225.486 50.9785 225.209 49.5426 224.654 48.0222C224.099 46.4777 223.242 45.0538 222.084 43.7506C220.925 42.4474 219.453 41.3735 217.667 40.5288C215.905 39.66 213.818 39.2256 211.405 39.2256C209.015 39.2256 206.964 39.6479 205.251 40.4926C203.537 41.3373 202.125 42.4112 201.015 43.7144C199.905 44.9935 199.085 46.4053 198.554 47.9498C198.047 49.4943 197.793 50.9544 197.793 52.33ZM201.341 52.33C201.341 50.6407 201.594 49.0961 202.101 47.6964C202.632 46.2725 203.344 45.0538 204.237 44.0402C205.154 43.0266 206.228 42.2423 207.459 41.6872C208.69 41.108 210.029 40.8184 211.477 40.8184C212.901 40.8184 214.24 41.108 215.495 41.6872C216.774 42.2423 217.884 43.0266 218.826 44.0402C219.791 45.0538 220.551 46.2725 221.106 47.6964C221.661 49.0961 221.939 50.6407 221.939 52.33C221.939 54.0193 221.661 55.5759 221.106 56.9998C220.551 58.3995 219.791 59.6062 218.826 60.6198C217.884 61.6334 216.774 62.4298 215.495 63.009C214.24 63.5641 212.901 63.8416 211.477 63.8416C210.029 63.8416 208.69 63.5641 207.459 63.009C206.228 62.4298 205.154 61.6334 204.237 60.6198C203.344 59.6062 202.632 58.3995 202.101 56.9998C201.594 55.5759 201.341 54.0193 201.341 52.33ZM229.115 52.33C229.115 53.6815 229.368 55.1295 229.875 56.674C230.406 58.1944 231.227 59.6062 232.337 60.9094C233.447 62.2126 234.859 63.2986 236.572 64.1674C238.286 65.0121 240.337 65.4344 242.726 65.4344C244.343 65.4344 245.803 65.2413 247.106 64.8552C248.434 64.4449 249.616 63.9019 250.654 63.2262C251.716 62.5505 252.633 61.7782 253.405 60.9094C254.177 60.0165 254.805 59.0873 255.287 58.122C255.794 57.1325 256.168 56.1431 256.41 55.1536C256.675 54.1641 256.808 53.2229 256.808 52.33C256.808 50.9785 256.53 49.5426 255.975 48.0222C255.42 46.4777 254.563 45.0538 253.405 43.7506C252.247 42.4474 250.775 41.3735 248.989 40.5288C247.227 39.66 245.139 39.2256 242.726 39.2256C240.337 39.2256 238.286 39.6479 236.572 40.4926C234.859 41.3373 233.447 42.4112 232.337 43.7144C231.227 44.9935 230.406 46.4053 229.875 47.9498C229.368 49.4943 229.115 50.9544 229.115 52.33ZM232.662 52.33C232.662 50.6407 232.916 49.0961 233.423 47.6964C233.954 46.2725 234.666 45.0538 235.558 44.0402C236.476 43.0266 237.549 42.2423 238.78 41.6872C240.011 41.108 241.35 40.8184 242.798 40.8184C244.222 40.8184 245.562 41.108 246.817 41.6872C248.096 42.2423 249.206 43.0266 250.147 44.0402C251.112 45.0538 251.873 46.2725 252.428 47.6964C252.983 49.0961 253.26 50.6407 253.26 52.33C253.26 54.0193 252.983 55.5759 252.428 56.9998C251.873 58.3995 251.112 59.6062 250.147 60.6198C249.206 61.6334 248.096 62.4298 246.817 63.009C245.562 63.5641 244.222 63.8416 242.798 63.8416C241.35 63.8416 240.011 63.5641 238.78 63.009C237.549 62.4298 236.476 61.6334 235.558 60.6198C234.666 59.6062 233.954 58.3995 233.423 56.9998C232.916 55.5759 232.662 54.0193 232.662 52.33ZM265.432 39.66H262.97V65H264.563V44.3298H264.708L275.894 65.4344H276.545L287.985 44.4746H288.129V65H291.424V39.66H288.926L277.197 61.4162H277.052L265.432 39.66Z" fill="#00C6A5"/>
<path d="M153.716 65.96L171.622 116.5H175.954L189.744 77.0066H190.105L203.462 116.5H207.722L225.627 65.96H222.306L207.361 108.125H207.072L192.993 65.96H189.888L175.52 107.908H175.232L160.358 65.96H153.716ZM229.579 103.83C229.579 105.181 229.832 106.629 230.339 108.174C230.87 109.694 231.691 111.106 232.801 112.409C233.911 113.713 235.323 114.799 237.036 115.667C238.75 116.512 240.801 116.934 243.19 116.934C244.807 116.934 246.267 116.741 247.57 116.355C248.898 115.945 250.08 115.402 251.118 114.726C252.18 114.05 253.097 113.278 253.869 112.409C254.641 111.516 255.269 110.587 255.752 109.622C256.258 108.633 256.632 107.643 256.874 106.654C257.139 105.664 257.272 104.723 257.272 103.83C257.272 102.479 256.994 101.043 256.439 99.5222C255.884 97.9777 255.028 96.5538 253.869 95.2506C252.711 93.9474 251.239 92.8735 249.453 92.0288C247.691 91.16 245.604 90.7256 243.19 90.7256C240.801 90.7256 238.75 91.1479 237.036 91.9926C235.323 92.8373 233.911 93.9112 232.801 95.2144C231.691 96.4935 230.87 97.9053 230.339 99.4498C229.832 100.994 229.579 102.454 229.579 103.83ZM233.127 103.83C233.127 102.141 233.38 100.596 233.887 99.1964C234.418 97.7725 235.13 96.5538 236.023 95.5402C236.94 94.5266 238.014 93.7423 239.244 93.1872C240.475 92.608 241.815 92.3184 243.263 92.3184C244.686 92.3184 246.026 92.608 247.281 93.1872C248.56 93.7423 249.67 94.5266 250.611 95.5402C251.577 96.5538 252.337 97.7725 252.892 99.1964C253.447 100.596 253.724 102.141 253.724 103.83C253.724 105.519 253.447 107.076 252.892 108.5C252.337 109.9 251.577 111.106 250.611 112.12C249.67 113.133 248.56 113.93 247.281 114.509C246.026 115.064 244.686 115.342 243.263 115.342C241.815 115.342 240.475 115.064 239.244 114.509C238.014 113.93 236.94 113.133 236.023 112.12C235.13 111.106 234.418 109.9 233.887 108.5C233.38 107.076 233.127 105.519 233.127 103.83ZM263.434 91.16V116.5H266.729V105.314H268.321C268.997 105.314 269.552 105.375 269.987 105.495C270.445 105.616 270.855 105.821 271.217 106.111C271.579 106.4 271.917 106.774 272.231 107.233C272.545 107.691 272.919 108.258 273.353 108.934L276.213 113.17C276.575 113.725 276.925 114.231 277.263 114.69C277.625 115.149 278.011 115.547 278.421 115.885C278.832 116.198 279.29 116.452 279.797 116.645C280.328 116.838 280.955 116.934 281.679 116.934C282.21 116.934 282.645 116.91 282.982 116.862C283.32 116.814 283.658 116.693 283.996 116.5V115.161C283.875 115.185 283.755 115.209 283.634 115.233C283.513 115.233 283.393 115.233 283.272 115.233C282.765 115.233 282.319 115.161 281.933 115.016C281.547 114.871 281.185 114.666 280.847 114.4C280.509 114.111 280.183 113.773 279.869 113.387C279.556 112.977 279.23 112.518 278.892 112.011C277.878 110.539 277.094 109.369 276.539 108.5C275.984 107.607 275.537 106.919 275.199 106.436C274.886 105.954 274.62 105.604 274.403 105.387C274.21 105.169 273.969 104.988 273.679 104.844L273.317 104.663V104.518C274.475 104.445 275.465 104.192 276.285 103.758C277.13 103.323 277.818 102.78 278.349 102.129C278.88 101.477 279.266 100.777 279.507 100.029C279.749 99.2567 279.869 98.5086 279.869 97.7846C279.869 97.133 279.737 96.4211 279.471 95.6488C279.23 94.8765 278.795 94.1646 278.168 93.513C277.565 92.8373 276.732 92.2822 275.67 91.8478C274.608 91.3893 273.269 91.16 271.652 91.16H263.434ZM266.729 92.7528H270.385C271.302 92.7528 272.122 92.8855 272.846 93.151C273.595 93.4165 274.234 93.7905 274.765 94.2732C275.296 94.7317 275.694 95.2868 275.96 95.9384C276.249 96.59 276.394 97.3019 276.394 98.0742C276.394 98.7258 276.261 99.3895 275.996 100.065C275.755 100.717 275.38 101.32 274.874 101.875C274.367 102.406 273.739 102.841 272.991 103.178C272.267 103.516 271.423 103.685 270.457 103.685H266.729V92.7528ZM289.418 116.5H292.712V107.595L296.803 103.215L306.432 116.5H310.197L298.902 100.97L308.097 91.16H306.287L292.712 105.423V91.16H289.418V116.5ZM312.609 110.093C312.657 111.13 312.923 112.072 313.405 112.916C313.912 113.761 314.588 114.485 315.432 115.088C316.301 115.667 317.315 116.126 318.473 116.464C319.632 116.778 320.899 116.934 322.274 116.934C323.674 116.934 324.929 116.765 326.039 116.428C327.173 116.09 328.139 115.607 328.935 114.98C329.731 114.352 330.347 113.592 330.781 112.699C331.216 111.806 331.433 110.817 331.433 109.731C331.433 108.234 331.059 107.016 330.311 106.074C329.562 105.109 328.621 104.313 327.487 103.685C326.377 103.034 325.158 102.491 323.831 102.056C322.528 101.622 321.309 101.163 320.175 100.681C319.064 100.198 318.135 99.6429 317.387 99.0154C316.639 98.3879 316.265 97.5553 316.265 96.5176C316.265 95.9384 316.386 95.3954 316.627 94.8886C316.892 94.3818 317.267 93.9474 317.749 93.5854C318.256 93.1993 318.871 92.8976 319.595 92.6804C320.319 92.4391 321.152 92.3184 322.093 92.3184C323.662 92.3184 324.989 92.6563 326.075 93.332C327.185 93.9836 327.837 95.0213 328.03 96.4452H330.492C330.347 95.5523 330.021 94.7559 329.514 94.056C329.007 93.332 328.368 92.7287 327.596 92.246C326.823 91.7392 325.942 91.3651 324.953 91.1238C323.988 90.8583 322.974 90.7256 321.912 90.7256C320.802 90.7256 319.74 90.8704 318.727 91.16C317.737 91.4496 316.856 91.8719 316.084 92.427C315.336 92.9821 314.733 93.6819 314.274 94.5266C313.84 95.3713 313.622 96.3366 313.622 97.4226C313.622 98.8465 313.984 99.9928 314.708 100.862C315.432 101.73 316.337 102.454 317.423 103.034C318.534 103.613 319.728 104.108 321.007 104.518C322.286 104.928 323.469 105.399 324.555 105.93C325.665 106.436 326.582 107.064 327.306 107.812C328.03 108.56 328.392 109.562 328.392 110.817C328.392 112.385 327.813 113.532 326.654 114.256C325.52 114.98 324 115.342 322.093 115.342C320.573 115.342 319.354 115.149 318.437 114.762C317.52 114.352 316.82 113.869 316.337 113.314C315.855 112.759 315.529 112.192 315.36 111.613C315.191 111.01 315.095 110.503 315.07 110.093H312.609Z" fill="#47C2FF"/>
</svg>
