<svg width="36" height="36" viewBox="0 0 36 36" fill="none" xmlns="http://www.w3.org/2000/svg">
<path opacity="0.2" d="M18 22.5H13.5V18L23.625 7.875L28.125 12.375L18 22.5Z" fill="#1C2020"/>
<path d="M32.2955 8.20448L27.7955 3.70448C27.6911 3.60001 27.567 3.51714 27.4305 3.4606C27.294 3.40406 27.1477 3.37495 27 3.37495C26.8523 3.37495 26.706 3.40406 26.5695 3.4606C26.433 3.51714 26.309 3.60001 26.2045 3.70448L12.7045 17.2045C12.6 17.3089 12.5172 17.433 12.4606 17.5695C12.4041 17.706 12.375 17.8523 12.375 18V22.5C12.375 22.7984 12.4935 23.0845 12.7045 23.2955C12.9155 23.5065 13.2016 23.625 13.5 23.625H18C18.1477 23.625 18.294 23.5959 18.4305 23.5394C18.567 23.4828 18.691 23.4 18.7955 23.2955L32.2955 9.79551C32.4 9.69104 32.4829 9.56702 32.5394 9.43053C32.5959 9.29403 32.625 9.14774 32.625 9C32.625 8.85225 32.5959 8.70596 32.5394 8.56946C32.4829 8.43297 32.4 8.30895 32.2955 8.20448ZM17.5341 21.375H14.625V18.466L23.625 9.46603L26.534 12.375L17.5341 21.375ZM28.125 10.784L25.216 7.875L27 6.09103L29.9091 9L28.125 10.784Z" fill="#1C2020"/>
<path d="M30.375 15.75C30.0766 15.75 29.7905 15.8685 29.5795 16.0795C29.3685 16.2905 29.25 16.5766 29.25 16.875V29.25H6.75V6.75H19.125C19.4234 6.75 19.7095 6.63147 19.9205 6.42049C20.1315 6.20952 20.25 5.92337 20.25 5.625C20.25 5.32663 20.1315 5.04048 19.9205 4.82951C19.7095 4.61853 19.4234 4.5 19.125 4.5H6.75C6.15347 4.50067 5.58156 4.73794 5.15975 5.15975C4.73794 5.58156 4.50067 6.15347 4.5 6.75V29.25C4.50067 29.8465 4.73794 30.4184 5.15975 30.8403C5.58156 31.2621 6.15347 31.4993 6.75 31.5H29.25C29.8465 31.4993 30.4184 31.2621 30.8403 30.8403C31.2621 30.4184 31.4993 29.8465 31.5 29.25V16.875C31.5 16.5766 31.3815 16.2905 31.1705 16.0795C30.9595 15.8685 30.6734 15.75 30.375 15.75Z" fill="#1C2020"/>
</svg>
