<svg width="36" height="36" viewBox="0 0 36 36" fill="none" xmlns="http://www.w3.org/2000/svg">
<path d="M32.0625 18C32.0625 18.4476 31.8847 18.8768 31.5682 19.1932C31.2518 19.5097 30.8226 19.6875 30.375 19.6875H19.6875V30.375C19.6875 30.8226 19.5097 31.2518 19.1932 31.5682C18.8768 31.8847 18.4476 32.0625 18 32.0625C17.5524 32.0625 17.1232 31.8847 16.8068 31.5682C16.4903 31.2518 16.3125 30.8226 16.3125 30.375V19.6875H5.625C5.17745 19.6875 4.74822 19.5097 4.43176 19.1932C4.11529 18.8768 3.9375 18.4476 3.9375 18C3.9375 17.5524 4.11529 17.1232 4.43176 16.8068C4.74822 16.4903 5.17745 16.3125 5.625 16.3125H16.3125V5.625C16.3125 5.17745 16.4903 4.74822 16.8068 4.43176C17.1232 4.11529 17.5524 3.9375 18 3.9375C18.4476 3.9375 18.8768 4.11529 19.1932 4.43176C19.5097 4.74822 19.6875 5.17745 19.6875 5.625V16.3125H30.375C30.8226 16.3125 31.2518 16.4903 31.5682 16.8068C31.8847 17.1232 32.0625 17.5524 32.0625 18Z" fill="#00C6A5"/>
</svg>
