<svg width="847" height="533" viewBox="0 0 847 533" fill="none" xmlns="http://www.w3.org/2000/svg">
<g filter="url(#filter0_d)">
<mask id="path-1-outside-1" maskUnits="userSpaceOnUse" x="4" y="0" width="839" height="525" fill="black">
<rect fill="white" x="4" width="839" height="525"/>
<path fill-rule="evenodd" clip-rule="evenodd" d="M48 4C42.4772 4 38 8.47715 38 14V167.923L10 196L38 224.077V511C38 516.523 42.4772 521 48 521H829C834.523 521 839 516.523 839 511V14C839 8.47715 834.523 4 829 4H48Z"/>
</mask>
<path fill-rule="evenodd" clip-rule="evenodd" d="M48 4C42.4772 4 38 8.47715 38 14V167.923L10 196L38 224.077V511C38 516.523 42.4772 521 48 521H829C834.523 521 839 516.523 839 511V14C839 8.47715 834.523 4 829 4H48Z" fill="#1C2020"/>
<path d="M38 167.923L40.8324 170.747L42 169.576V167.923H38ZM10 196L7.16767 193.175L4.35094 196L7.16767 198.825L10 196ZM38 224.077H42V222.424L40.8324 221.253L38 224.077ZM42 14C42 10.6863 44.6863 8 48 8V0C40.268 0 34 6.26802 34 14H42ZM42 167.923V14H34V167.923H42ZM12.8323 198.825L40.8324 170.747L35.1677 165.098L7.16767 193.175L12.8323 198.825ZM40.8324 221.253L12.8323 193.175L7.16767 198.825L35.1677 226.902L40.8324 221.253ZM42 511V224.077H34V511H42ZM48 517C44.6863 517 42 514.314 42 511H34C34 518.732 40.268 525 48 525V517ZM829 517H48V525H829V517ZM835 511C835 514.314 832.314 517 829 517V525C836.732 525 843 518.732 843 511H835ZM835 14V511H843V14H835ZM829 8C832.314 8 835 10.6863 835 14H843C843 6.26804 836.732 0 829 0V8ZM48 8H829V0H48V8Z" fill="#00C6A5" mask="url(#path-1-outside-1)"/>
</g>
<defs>
<filter id="filter0_d" x="0.351074" y="0" width="846.649" height="533" filterUnits="userSpaceOnUse" color-interpolation-filters="sRGB">
<feFlood flood-opacity="0" result="BackgroundImageFix"/>
<feColorMatrix in="SourceAlpha" type="matrix" values="0 0 0 0 0 0 0 0 0 0 0 0 0 0 0 0 0 0 127 0"/>
<feOffset dy="4"/>
<feGaussianBlur stdDeviation="2"/>
<feColorMatrix type="matrix" values="0 0 0 0 0.917647 0 0 0 0 0.952941 0 0 0 0 0.94902 0 0 0 0.2 0"/>
<feBlend mode="normal" in2="BackgroundImageFix" result="effect1_dropShadow"/>
<feBlend mode="normal" in="SourceGraphic" in2="effect1_dropShadow" result="shape"/>
</filter>
</defs>
</svg>
